#!OML:ASF H:\Punching\Project 1\Capture day 1\Session 1\female.ASF
:FULLY-SPECIFIED
:DEGREES
923
root 1.1267 14.4833 2.81549 16.873 21.2961 0.244009
lowerback 4.52352 0.164495 4.16118
upperback -3.44831 0.869118 5.45507
thorax -6.17985 0.397459 3.28922
lowerneck -9.1764 -7.34141 3.95121
upperneck 15.7623 -12.1027 9.13457
head 6.70289 -4.81532 1.23811
rclavicle 4.01545e-014 -4.92986e-014
rhumerus 2.32 -11.1898 -59.3087
rradius 96.6785
rwrist -37.517
rhand -13.7772 -27.0658
rfingers 7.12502
rthumb 12.3439 -56.6814
lclavicle 4.01545e-014 -4.92986e-014
lhumerus 23.1681 -49.0884 79.6346
lradius 130.112
lwrist 9.78815
lhand -23.5469 10.5583
lfingers 7.12502
lthumb 2.91498 40.5181
rfemur 15.9384 -4.37555 16.1412
rtibia 6.36111e-015
rfoot -20.8842 -32.4348
rtoes -13.291
lfemur -58.4367 -8.52172 -14.2342
ltibia 48.6936
lfoot -5.34819 -0.488768
ltoes 2.50485
924
root 1.12588 14.5167 2.81871 17.1711 20.0614 -0.0192561
lowerback 4.50537 0.029614 3.99059
upperback -3.43503 0.660319 5.30156
thorax -6.14723 0.296053 3.24256
lowerneck -9.3046 -6.7684 4.64338
upperneck 16.0775 -11.4282 8.84531
head 6.75429 -4.45534 1.09224
rclavicle -3.97569e-016 4.45278e-014
rhumerus -0.152359 -9.65213 -60.706
rradius 101.772
rwrist -34.3061
rhand -12.0959 -25.1316
rfingers 7.12502
rthumb 13.9646 -54.6426
lclavicle -3.97569e-016 4.45278e-014
lhumerus 23.515 -48.9876 79.2831
lradius 130.326
lwrist 10.362
lhand -23.6018 10.4368
lfingers 7.12502
lthumb 2.86197 40.3974
rfemur 15.163 -3.43411 16.1265
rtibia 6.36111e-015
rfoot -20.6414 -32.3742
rtoes -13.4074
lfemur -58.4952 -8.19922 -13.6257
ltibia 48.5361
lfoot -5.45073 0.586568
ltoes 2.78874
925
root 1.12554 14.5499 2.82238 17.5119 18.8397 -0.29366
lowerback 4.4623 -0.151547 3.79734
upperback -3.42669 0.389258 5.18824
thorax -6.10448 0.165996 3.25706
lowerneck -9.4864 -6.14705 5.30592
upperneck 16.4357 -10.6962 8.55296
head 6.83674 -4.06531 0.951462
rclavicle 3.18055e-015 3.18055e-015
rhumerus -2.57087 -8.18455 -62.1103
rradius 106.547
rwrist -30.8074
rhand -10.1279 -22.6845
rfingers 7.12502
rthumb 15.8605 -52.0549
lclavicle 3.18055e-015 3.18055e-015
lhumerus 23.8963 -48.7882 78.8775
lradius 130.554
lwrist 10.7605
lhand -23.5868 10.2758
lfingers 7.12502
lthumb 2.87639 40.2361
rfemur 14.3505 -2.50117 16.1071
rtibia 4.77083e-014
rfoot -20.3901 -32.2878
rtoes -13.5629
lfemur -58.5903 -7.86363 -13.0098
ltibia 48.3882
lfoot -5.55846 1.63785
ltoes 3.0982
926
root 1.1254 14.5823 2.82644 17.9048 17.6639 -0.550925
lowerback 4.38785 -0.363067 3.58701
upperback -3.43111 0.0759435 5.08436
thorax -6.05534 0.0159776 3.29478
lowerneck -9.69919 -5.50289 5.96296
upperneck 16.8099 -9.94407 8.28032
head 6.9392 -3.66213 0.817963
rclavicle 7.55382e-015 -1.43125e-014
rhumerus -4.96694 -6.87423 -63.4617
rradius 111.072
rwrist -27.5565
rhand -8.04243 -19.8309
rfingers 7.12502
rthumb 17.868 -49.0301
lclavicle 7.55382e-015 -1.43125e-014
lhumerus 24.3238 -48.563 78.4108
lradius 130.784
lwrist 10.9737
lhand -23.5302 10.1147
lfingers 7.12502
lthumb 2.9311 40.0743
rfemur 13.5125 -1.61474 16.0565
rtibia -6.36111e-015
rfoot -20.1423 -32.1548
rtoes -13.7445
lfemur -58.7233 -7.54538 -12.4085
ltibia 48.2356
lfoot -5.6576 2.64629
ltoes 3.37573
927
root 1.12458 14.6134 2.83068 18.339 16.5533 -0.770506
lowerback 4.2999 -0.606004 3.33939
upperback -3.44909 -0.28115 4.98841
thorax -6.01005 -0.154052 3.36548
lowerneck -9.92658 -4.84343 6.60347
upperneck 17.1861 -9.17893 8.03598
head 7.05533 -3.25062 0.697029
rclavicle -6.40087e-014 2.22639e-014
rhumerus -7.3174 -5.70168 -64.7228
rradius 115.382
rwrist -24.8745
rhand -6.04137 -16.8129
rfingers 7.12502
rthumb 19.7926 -45.8251
lclavicle -6.40087e-014 2.22639e-014
lhumerus 24.7706 -48.3173 77.9127
lradius 131.009
lwrist 11.0015
lhand -23.4607 9.98249
lfingers 7.12502
lthumb 2.99816 39.9412
rfemur 12.6702 -0.799 15.9587
rtibia -6.04305e-014
rfoot -19.904 -31.965
rtoes -13.9439
lfemur -58.8783 -7.26378 -11.8373
ltibia 48.063
lfoot -5.73706 3.59766
ltoes 3.58375
928
root 1.12309 14.6428 2.83466 18.8039 15.5311 -0.923416
lowerback 4.21333 -0.888347 3.0329
upperback -3.47841 -0.693307 4.90212
thorax -5.97288 -0.348781 3.48421
lowerneck -10.1578 -4.17212 7.21778
upperneck 17.5541 -8.39997 7.81144
head 7.17942 -2.83287 0.588619
rclavicle 1.55052e-014 -3.18055e-015
rhumerus -9.59465 -4.62572 -65.8716
rradius 119.48
rwrist -22.9452
rhand -4.27353 -13.8999
rfingers 7.12502
rthumb 21.4913 -42.7277
lclavicle 1.55052e-014 -3.18055e-015
lhumerus 25.1849 -48.0454 77.4392
lradius 131.228
lwrist 10.8756
lhand -23.4151 9.90489
lfingers 7.12502
lthumb 3.04218 39.8629
rfemur 11.8473 -0.0846876 15.7917
rtibia 0
rfoot -19.6779 -31.7272
rtoes -14.1567
lfemur -59.0403 -7.04583 -11.3258
ltibia 47.8578
lfoot -5.78522 4.48003
ltoes 3.68126
929
root 1.12048 14.67 2.83789 19.276 14.6079 -1.00079
lowerback 4.15422 -1.21197 2.65274
upperback -3.5159 -1.16241 4.8325
thorax -5.95292 -0.568338 3.66744
lowerneck -10.3731 -3.49442 7.79921
upperneck 17.8973 -7.60662 7.5947
head 7.30155 -2.41196 0.491074
rclavicle 1.47101e-014 0
rhumerus -11.7819 -3.61666 -66.8904
rradius 123.355
rwrist -21.8811
rhand -2.73123 -11.3714
rfingers 7.12502
rthumb 22.9719 -40.0226
lclavicle 1.47101e-014 0
lhumerus 25.5328 -47.7441 77.0322
lradius 131.445
lwrist 10.6551
lhand -23.4129 9.87844
lfingers 7.12502
lthumb 3.04433 39.8365
rfemur 11.0681 0.51388 15.5571
rtibia 9.54166e-015
rfoot -19.4819 -31.4544
rtoes -14.337
lfemur -59.1909 -6.89881 -10.8865
ltibia 47.6145
lfoot -5.79947 5.28616
ltoes 3.71007
930
root 1.11681 14.6945 2.8399 19.7278 13.7961 -1.01044
lowerback 4.15072 -1.58311 2.19828
upperback -3.559 -1.69498 4.7981
thorax -5.95981 -0.815325 3.93707
lowerneck -10.5599 -2.81098 8.33821
upperneck 18.2081 -6.79071 7.36441
head 7.41564 -1.98761 0.400192
rclavicle 4.77083e-014 -3.18055e-015
rhumerus -13.8359 -2.65831 -67.7634
rradius 126.977
rwrist -21.7498
rhand -1.29661 -9.43773
rfingers 7.12502
rthumb 24.3479 -37.9111
lclavicle 4.77083e-014 -3.18055e-015
lhumerus 25.7732 -47.388 76.7393
lradius 131.671
lwrist 10.4154
lhand -23.4675 9.9071
lfingers 7.12502
lthumb 2.99165 39.8659
rfemur 10.357 0.986712 15.2756
rtibia 6.36111e-014
rfoot -19.3162 -31.1705
rtoes -14.4801
lfemur -59.3164 -6.82291 -10.5202
ltibia 47.3368
lfoot -5.7825 6.00745
ltoes 3.67664
931
root 1.11226 14.716 2.84032 20.1432 13.1004 -0.972991
lowerback 4.20491 -1.98882 1.69483
upperback -3.59994 -2.27305 4.80298
thorax -5.98414 -1.08166 4.28232
lowerneck -10.719 -2.13502 8.84123
upperneck 18.4724 -5.96584 7.10567
head 7.51597 -1.5682 0.308792
rclavicle 4.57205e-014 4.05521e-014
rhumerus -15.7254 -1.80102 -68.468
rradius 130.318
rwrist -22.5777
rhand 0.152053 -8.20115
rfingers 7.12502
rthumb 25.736 -36.4809
lclavicle 4.57205e-014 4.05521e-014
lhumerus 25.9052 -47.0044 76.5778
lradius 131.925
lwrist 10.2269
lhand -23.5771 9.98893
lfingers 7.12502
lthumb 2.88577 39.9492
rfemur 9.7214 1.33524 14.9783
rtibia 5.725e-014
rfoot -19.1815 -30.8948
rtoes -14.5591
lfemur -59.4185 -6.80867 -10.2127
ltibia 47.0364
lfoot -5.73893 6.64276
ltoes 3.61685
932
root 1.10729 14.7343 2.83909 20.5103 12.5229 -0.917286
lowerback 4.31742 -2.41945 1.17409
upperback -3.63276 -2.88212 4.85844
thorax -6.01821 -1.36118 4.69689
lowerneck -10.8546 -1.47403 9.30275
upperneck 18.6815 -5.13744 6.80637
head 7.59954 -1.15828 0.212956
rclavicle 1.19271e-015 -1.90833e-014
rhumerus -17.4073 -1.08544 -68.9681
rradius 133.347
rwrist -24.381
rhand 1.6545 -7.70379
rfingers 7.12502
rthumb 27.1741 -35.7671
lclavicle 1.19271e-015 -1.90833e-014
lhumerus 25.9536 -46.591 76.5418
lradius 132.213
lwrist 10.1492
lhand -23.7417 10.1147
lfingers 7.12502
lthumb 2.72683 40.077
rfemur 9.16472 1.56753 14.7014
rtibia 2.22639e-014
rfoot -19.0733 -30.6385
rtoes -14.5795
lfemur -59.503 -6.83896 -9.94371
ltibia 46.731
lfoot -5.67799 7.19185
ltoes 3.53978
933
root 1.10267 14.7493 2.83632 20.8306 12.0633 -0.869165
lowerback 4.4602 -2.84749 0.697224
upperback -3.65944 -3.4839 4.9397
thorax -6.053 -1.63815 5.11603
lowerneck -10.9367 -0.853746 9.75854
upperneck 18.8108 -4.34025 6.46905
head 7.6519 -0.773615 0.104428
rclavicle 3.77691e-015 -3.4191e-014
rhumerus -18.8778 -0.602616 -69.2538
rradius 136.033
rwrist -27.1091
rhand 3.10439 -7.94931
rfingers 7.12502
rthumb 28.5603 -35.7878
lclavicle 3.77691e-015 -3.4191e-014
lhumerus 25.9333 -46.187 76.6351
lradius 132.532
lwrist 10.2975
lhand -23.8568 10.1342
lfingers 7.12502
lthumb 2.6157 40.0979
rfemur 8.67896 1.69305 14.4721
rtibia -3.49861e-014
rfoot -18.9876 -30.4024
rtoes -14.5465
lfemur -59.5859 -6.90398 -9.68968
ltibia 46.4383
lfoot -5.60848 7.66276
ltoes 3.45946
934
root 1.0993 14.7613 2.83227 21.115 11.7162 -0.845444
lowerback 4.60914 -3.27402 0.281958
upperback -3.67015 -4.07894 5.06004
thorax -6.06511 -1.91396 5.54183
lowerneck -10.9995 -0.265948 10.1955
upperneck 18.8725 -3.56498 6.08554
head 7.68299 -0.409614 -0.0174313
rclavicle 4.77083e-015 3.65764e-014
rhumerus -20.0651 -0.340977 -69.3028
rradius 138.325
rwrist -30.6638
rhand 4.31551 -8.83936
rfingers 7.12502
rthumb 29.7169 -36.4775
lclavicle 4.77083e-015 3.65764e-014
lhumerus 25.882 -45.7634 76.8188
lradius 132.873
lwrist 10.6433
lhand -23.9417 10.0383
lfingers 7.12502
lthumb 2.53369 40.003
rfemur 8.2495 1.72324 14.3023
rtibia 2.22639e-014
rfoot -18.9168 -30.1771
rtoes -14.4865
lfemur -59.686 -6.99202 -9.43803
ltibia 46.1732
lfoot -5.5365 8.06454
ltoes 3.37448
